<svg xmlns="http://www.w3.org/2000/svg" version="1.1" xmlns:xlink="http://www.w3.org/1999/xlink" xmlns:svgjs="http://svgjs.dev/svgjs" width="1000" height="1000" viewBox="0 0 1000 1000"><rect width="1000" height="1000" fill="#ffffff"></rect><g transform="matrix(0.7,0,0,0.7,149.57575757575756,341.4824949496796)"><svg viewBox="0 0 396 180" data-background-color="#ffffff" preserveAspectRatio="xMidYMid meet" height="454" width="1000" xmlns="http://www.w3.org/2000/svg" xmlns:xlink="http://www.w3.org/1999/xlink"><defs></defs><g id="tight-bounds" transform="matrix(1,0,0,1,0.2400000000000091,-0.21664259744669323)"><svg viewBox="0 0 395.52 180.43328542608842" height="180.43328542608842" width="395.52"><g><svg viewBox="0 0 553.0990471596377 252.31967598364798" height="180.43328542608842" width="395.52"><g><rect width="5.5454140419146185" height="200.99999999999997" x="263.95534178525224" y="25.659837991824006" fill="#1941e7" opacity="1" stroke-width="0" stroke="transparent" fill-opacity="1" class="rect-o-0" data-fill-palette-color="primary" rx="1%" id="o-0" data-palette-color="#1941e7"></rect></g><g transform="matrix(1,0,0,1,284.01754651280726,26.15983799182399)"><svg viewBox="0 0 269.0815006468305 200" height="200" width="269.0815006468305"><g><svg viewBox="0 0 269.0815006468305 200" height="200" width="269.0815006468305"><g><svg viewBox="0 0 269.0815006468305 200" height="200" width="269.0815006468305"><g transform="matrix(1,0,0,1,0,0)"><svg width="269.0815006468305" viewBox="1.6500005722045898 -35.30000305175781 156 112.89999389648438" height="200" data-palette-color="#1941e7"><svg></svg><svg></svg><svg></svg><g class="undefined-text-0" data-fill-palette-color="primary" id="text-0"><path d="M27.25 0l-2.8-7.75h-15.2l-2.8 7.75h-4.8l12.6-34.65h5.25l12.55 34.65zM10.55-11.45h12.6l-6.3-17.6zM48.6 0.35c-2.3 0-4.357-0.41-6.17-1.23-1.82-0.813-3.247-1.947-4.28-3.4-1.033-1.447-1.567-3.12-1.6-5.02v0h4.85c0.167 1.633 0.843 3.007 2.03 4.12 1.18 1.12 2.903 1.68 5.17 1.68v0c2.167 0 3.877-0.543 5.13-1.63 1.247-1.08 1.87-2.47 1.87-4.17v0c0-1.333-0.367-2.417-1.1-3.25-0.733-0.833-1.65-1.467-2.75-1.9-1.1-0.433-2.583-0.9-4.45-1.4v0c-2.3-0.6-4.14-1.2-5.52-1.8-1.387-0.6-2.57-1.543-3.55-2.83-0.987-1.28-1.48-3.003-1.48-5.17v0c0-1.9 0.483-3.583 1.45-5.05 0.967-1.467 2.327-2.6 4.08-3.4 1.747-0.8 3.753-1.2 6.02-1.2v0c3.267 0 5.943 0.817 8.03 2.45 2.08 1.633 3.253 3.8 3.52 6.5v0h-5c-0.167-1.333-0.867-2.51-2.1-3.53-1.233-1.013-2.867-1.52-4.9-1.52v0c-1.9 0-3.45 0.49-4.65 1.47-1.2 0.987-1.8 2.363-1.8 4.13v0c0 1.267 0.36 2.3 1.08 3.1 0.713 0.8 1.597 1.407 2.65 1.82 1.047 0.42 2.52 0.897 4.42 1.43v0c2.3 0.633 4.15 1.26 5.55 1.88 1.4 0.613 2.6 1.56 3.6 2.84 1 1.287 1.5 3.03 1.5 5.23v0c0 1.7-0.45 3.3-1.35 4.8-0.9 1.5-2.233 2.717-4 3.65-1.767 0.933-3.85 1.4-6.25 1.4zM64.75-34.85h23.6v3.7h-9.5v31.15h-4.55v-31.15h-9.55zM117.75 0h-5.45l-8.3-14.25h-5.5v14.25h-4.55v-34.85h11.25c2.633 0 4.86 0.45 6.68 1.35 1.813 0.9 3.17 2.117 4.07 3.65 0.9 1.533 1.35 3.283 1.35 5.25v0c0 2.4-0.69 4.517-2.07 6.35-1.387 1.833-3.463 3.05-6.23 3.65v0zM98.5-31.1v13.2h6.7c2.467 0 4.317-0.61 5.55-1.83 1.233-1.213 1.85-2.837 1.85-4.87v0c0-2.067-0.607-3.667-1.82-4.8-1.22-1.133-3.08-1.7-5.58-1.7v0zM140.15 0.35c-3.233 0-6.183-0.76-8.85-2.28-2.667-1.513-4.773-3.63-6.32-6.35-1.553-2.713-2.33-5.77-2.33-9.17v0c0-3.4 0.777-6.46 2.33-9.18 1.547-2.713 3.653-4.83 6.32-6.35 2.667-1.513 5.617-2.27 8.85-2.27v0c3.267 0 6.233 0.757 8.9 2.27 2.667 1.52 4.767 3.63 6.3 6.33 1.533 2.7 2.3 5.767 2.3 9.2v0c0 3.433-0.767 6.5-2.3 9.2-1.533 2.7-3.633 4.807-6.3 6.32-2.667 1.52-5.633 2.28-8.9 2.28zM140.15-3.6c2.433 0 4.627-0.567 6.58-1.7 1.947-1.133 3.48-2.75 4.6-4.85 1.113-2.1 1.67-4.533 1.67-7.3v0c0-2.8-0.557-5.243-1.67-7.33-1.12-2.08-2.647-3.687-4.58-4.82-1.933-1.133-4.133-1.7-6.6-1.7v0c-2.467 0-4.667 0.567-6.6 1.7-1.933 1.133-3.457 2.74-4.57 4.82-1.12 2.087-1.68 4.53-1.68 7.33v0c0 2.767 0.56 5.2 1.68 7.3 1.113 2.1 2.647 3.717 4.6 4.85 1.947 1.133 4.137 1.7 6.57 1.7z" data-fill-palette-color="primary" fill="#1941e7" opacity="1"></path><path d="M31.25 3.75v34.9h-4.55l-18.3-27.75v27.75h-4.55v-34.9h4.55l18.3 27.7v-27.7zM54.8 39c-3.233 0-6.183-0.76-8.85-2.28-2.667-1.513-4.773-3.63-6.32-6.35-1.553-2.713-2.33-5.77-2.33-9.17v0c0-3.4 0.777-6.46 2.33-9.18 1.547-2.713 3.653-4.83 6.32-6.35 2.667-1.513 5.617-2.27 8.85-2.27v0c3.267 0 6.233 0.757 8.9 2.27 2.667 1.52 4.767 3.63 6.3 6.33 1.533 2.7 2.3 5.767 2.3 9.2v0c0 3.433-0.767 6.5-2.3 9.2-1.533 2.7-3.633 4.807-6.3 6.32-2.667 1.52-5.633 2.28-8.9 2.28zM54.8 35.05c2.433 0 4.627-0.567 6.58-1.7 1.947-1.133 3.477-2.75 4.59-4.85 1.12-2.1 1.68-4.533 1.68-7.3v0c0-2.8-0.56-5.243-1.68-7.33-1.113-2.08-2.637-3.687-4.57-4.82-1.933-1.133-4.133-1.7-6.6-1.7v0c-2.467 0-4.667 0.567-6.6 1.7-1.933 1.133-3.457 2.74-4.57 4.82-1.12 2.087-1.68 4.53-1.68 7.33v0c0 2.767 0.56 5.2 1.68 7.3 1.113 2.1 2.647 3.717 4.6 4.85 1.947 1.133 4.137 1.7 6.57 1.7zM108.8 4.05h4.85v34.6h-4.55v-25.8l-11.5 25.8h-3.2l-11.55-25.85v25.85h-4.55v-34.6h4.9l12.8 28.6zM144.75 38.65l-2.8-7.75h-15.2l-2.8 7.75h-4.8l12.6-34.65h5.25l12.55 34.65zM128.05 27.2h12.6l-6.3-17.6z" data-fill-palette-color="primary" fill="#1941e7" opacity="1"></path><path d="M24.6 46.05l-16.9 27.3h17v3.95h-22.4v-3.6l16.9-27.3h-16.7v-3.95h22.1zM30.9 42.45h4.55v34.85h-4.55zM70.6 42.4v34.9h-4.55l-18.3-27.75v27.75h-4.55v-34.9h4.55l18.3 27.7v-27.7zM110.2 52.55h-5.45c-0.967-2.033-2.367-3.61-4.2-4.73-1.833-1.113-3.967-1.67-6.4-1.67v0c-2.433 0-4.623 0.557-6.57 1.67-1.953 1.12-3.49 2.72-4.61 4.8-1.113 2.087-1.67 4.497-1.67 7.23v0c0 2.733 0.557 5.133 1.67 7.2 1.12 2.067 2.657 3.657 4.61 4.77 1.947 1.12 4.137 1.68 6.57 1.68v0c3.4 0 6.2-1.017 8.4-3.05 2.2-2.033 3.483-4.783 3.85-8.25v0h-13.9v-3.7h18.75v3.5c-0.267 2.867-1.167 5.49-2.7 7.87-1.533 2.387-3.55 4.27-6.05 5.65-2.5 1.387-5.283 2.08-8.35 2.08v0c-3.233 0-6.183-0.76-8.85-2.28-2.667-1.513-4.777-3.62-6.33-6.32-1.547-2.7-2.32-5.75-2.32-9.15v0c0-3.4 0.773-6.46 2.32-9.18 1.553-2.713 3.663-4.83 6.33-6.35 2.667-1.513 5.617-2.27 8.85-2.27v0c3.7 0 6.973 0.917 9.82 2.75 2.853 1.833 4.93 4.417 6.23 7.75z" data-fill-palette-color="primary" fill="#1941e7" opacity="1"></path></g></svg></g></svg></g></svg></g></svg></g><g><svg viewBox="0 0 249.43855109961189 252.31967598364798" height="252.31967598364798" width="249.43855109961189"><g><svg xmlns="http://www.w3.org/2000/svg" xmlns:xlink="http://www.w3.org/1999/xlink" version="1.1" x="0" y="0" viewBox="3.435819625854492 4.255000114440918 88.2941665649414 89.31400299072266" enable-background="new 0 0 100 100" xml:space="preserve" height="252.31967598364798" width="249.43855109961189" class="icon-icon-0" data-fill-palette-color="accent" id="icon-0"><path d="M84.554 4.255c-3.956 0-7.176 3.219-7.176 7.174 0 0.387 0.039 0.765 0.099 1.135-4.092 2.764-9.443 7-15.568 12.325-4.184-1.993-8.861-3.113-13.796-3.113-4.216 0-8.241 0.823-11.934 2.303-8.546-4.33-15.099-4.867-18.489-1.478-3.615 3.615-2.559 10.319 1.195 17.912-1.891 4.094-2.954 8.646-2.954 13.445 0 4.956 1.127 9.652 3.138 13.851C0.588 89.162 3.108 91.712 4.198 92.802c0.469 0.469 1.055 0.767 1.897 0.767 1.784 0 4.716-1.335 10.114-5.214 3.358-2.414 7.331-5.58 11.733-9.347 5.522 4.455 12.538 7.131 20.169 7.131 5.171 0 10.056-1.233 14.39-3.409 3.422 1.423 6.504 2.168 9.096 2.168 2.577 0 4.677-0.725 6.17-2.218 3.033-3.033 2.954-8.486-0.202-15.778 1.748-3.965 2.728-8.34 2.728-12.943 0-7.611-2.661-14.608-7.095-20.124 5.15-5.988 9.264-11.255 11.862-15.254 3.721-0.262 6.67-3.365 6.67-7.15C91.73 7.474 88.511 4.255 84.554 4.255zM68.88 33.851c-5.615 6.406-12.317 13.548-19.557 20.787-1.203 1.202-2.43 2.414-3.659 3.618-1.404-0.985-3.109-1.569-4.951-1.569-1.909 0-3.67 0.63-5.102 1.681-5.973-6.453-10.321-12.584-13.106-17.84 4.847-9.204 14.504-15.497 25.608-15.497C56.256 25.03 63.617 28.417 68.88 33.851zM35.322 65.33c0-2.973 2.418-5.39 5.391-5.39 2.972 0 5.39 2.417 5.39 5.39 0 2.972-2.418 5.389-5.39 5.389C37.741 70.719 35.322 68.302 35.322 65.33zM19.991 24.902c1.997-1.996 6.534-1.603 12.413 0.984-4.737 2.662-8.735 6.486-11.606 11.085C18.316 31.162 18.081 26.812 19.991 24.902zM33.389 60.761c-0.832 1.326-1.32 2.889-1.32 4.569 0 1.666 0.483 3.22 1.304 4.542-1.906 1.731-3.707 3.335-5.405 4.817-5.411-5.26-8.783-12.608-8.783-20.731 0-3.423 0.602-6.707 1.697-9.756C24.099 49.713 28.496 55.486 33.389 60.761zM6.826 90.183c0.652-2.084 4.084-7.877 13.913-19.329 1.348 2.176 2.946 4.18 4.756 5.971C15.18 85.626 9.106 89.5 6.826 90.183zM48.112 82.885c-6.647 0-12.774-2.26-17.665-6.044 1.661-1.451 3.373-2.979 5.129-4.575 1.438 1.066 3.211 1.707 5.136 1.707 1.897 0 3.649-0.623 5.076-1.663 4.52 3.62 8.853 6.503 12.835 8.59C55.362 82.176 51.82 82.885 48.112 82.885zM75.468 80.378c-1.517 1.516-4.78 1.675-9.296 0.201 3.787-2.577 6.999-5.942 9.397-9.857C77.141 75.275 77.128 78.719 75.468 80.378zM77.038 53.958c0 10.755-5.903 20.15-14.637 25.135-4.148-1.89-9.028-4.896-14.386-9.16 0.844-1.336 1.341-2.911 1.341-4.603 0-1.752-0.526-3.379-1.424-4.741 1.24-1.215 2.479-2.438 3.691-3.65 7.151-7.151 13.796-14.222 19.403-20.606C74.791 41.216 77.038 47.327 77.038 53.958zM64.959 26.553c5.377-4.637 10.091-8.369 13.792-10.919 0.724 0.995 1.693 1.796 2.82 2.314-2.49 3.659-6.115 8.261-10.553 13.435C69.204 29.542 67.171 27.917 64.959 26.553zM84.554 15.352c-2.162 0-3.922-1.76-3.922-3.922 0-2.162 1.76-3.92 3.922-3.92 2.163 0 3.923 1.758 3.923 3.92C88.477 13.592 86.717 15.352 84.554 15.352z" fill="#1941e7" data-fill-palette-color="accent"></path><circle cx="84.426" cy="36.093" r="2.9" fill="#1941e7" data-fill-palette-color="accent"></circle><circle cx="63.021" cy="64.038" r="5.9" fill="#1941e7" data-fill-palette-color="accent"></circle><circle cx="42.211" cy="77.572" r="1.2" fill="#1941e7" data-fill-palette-color="accent"></circle><circle cx="70.555" cy="46.986" r="1.2" fill="#1941e7" data-fill-palette-color="accent"></circle><circle cx="40.963" cy="32.373" r="1.9" fill="#1941e7" data-fill-palette-color="accent"></circle><circle cx="24.738" cy="62.178" r="1.9" fill="#1941e7" data-fill-palette-color="accent"></circle><circle cx="42.425" cy="46.986" r="3.3" fill="#1941e7" data-fill-palette-color="accent"></circle></svg></g></svg></g></svg></g></svg><rect width="395.52" height="180.43328542608842" fill="none" stroke="none" visibility="hidden"></rect></g></svg></g></svg>