<svg xmlns="http://www.w3.org/2000/svg" version="1.1" xmlns:xlink="http://www.w3.org/1999/xlink" xmlns:svgjs="http://svgjs.dev/svgjs" width="1000" height="1000" viewBox="0 0 1000 1000"><rect width="1000" height="1000" fill="#ffffff"></rect><g transform="matrix(0.7,0,0,0.7,150.00077059784894,106.25)"><svg viewBox="0 0 320 360" data-background-color="#ffffff" preserveAspectRatio="xMidYMid meet" height="1125" width="1000" xmlns="http://www.w3.org/2000/svg" xmlns:xlink="http://www.w3.org/1999/xlink"><defs></defs><g id="tight-bounds" transform="matrix(1,0,0,1,0.00010353528136874957,0)"><svg viewBox="0 0 320 360" height="360" width="320"><g><svg></svg></g><g><svg viewBox="0 0 320 360" height="360" width="320"><g><path d="M307.925 179.999l6.575-11.387c11.322-19.607 4.604-44.679-15.003-56.001l-11.387-6.575v-13.151c0-22.639-18.354-40.994-40.994-40.994h-13.151l-6.575-11.387c-11.322-19.607-36.393-26.325-56.001-15.003l-11.39 6.572-11.387-6.576c-19.607-11.318-44.679-4.6-56.001 15.007l-6.575 11.387h-13.151c-22.639 0-40.994 18.354-40.994 40.994v13.151l-11.387 6.575c-19.607 11.322-26.325 36.393-15.003 56.001l6.572 11.387-6.576 11.387c-11.318 19.607-4.6 44.679 15.007 56l11.387 6.576v13.15c0 22.639 18.354 40.994 40.994 40.994h13.151l6.575 11.387c11.322 19.607 36.393 26.325 56.001 15.003l11.387-6.571 11.387 6.575c19.607 11.322 44.679 4.604 56-15.003l6.576-11.387h13.15c22.639 0 40.994-18.354 40.994-40.994v-13.151l11.387-6.575c19.607-11.322 26.325-36.393 15.003-56.001zM297.702 115.716c8.655 4.996 14.842 13.062 17.428 22.713 2.586 9.65 1.261 19.734-3.735 28.384l-5.538 9.596-17.747-30.74v-35.494zM251.155 271.155l-57.791 33.365h-66.731l-57.791-33.365-33.365-57.791v-66.731l33.365-57.791 57.791-33.365h66.731l57.791 33.365 33.365 57.791v66.731zM284.517 220.539v31.351l-27.151 15.676zM247.566 277.366l-15.676 27.151h-31.351zM187.15 308.106l-27.151 15.676-27.151-15.676zM119.459 304.517h-31.352l-15.676-27.151zM62.632 267.566l-27.151-15.676v-31.351zM31.891 207.15l-15.675-27.151 15.675-27.151zM35.481 139.459v-31.352l27.151-15.676zM72.431 82.632l15.676-27.151h31.352zM132.848 51.891l27.151-15.675 27.151 15.675zM200.539 55.481h31.351l15.676 27.151zM257.366 92.431l27.151 15.676v31.352zM288.106 152.848l15.676 27.151-15.676 27.151zM247.112 55.481c9.992 0 19.384 3.889 26.452 10.956 7.063 7.063 10.956 16.46 10.957 26.452v11.079l-30.741-17.747-17.747-30.74zM173.18 28.606c8.655-4.996 18.735-6.322 28.385-3.735 9.65 2.586 17.716 8.777 22.712 17.428l5.538 9.596h-35.494l-30.741-17.747zM95.716 42.295c4.996-8.655 13.062-14.842 22.713-17.428 9.65-2.586 19.734-1.261 28.384 3.736l9.596 5.537-30.74 17.747h-35.494zM35.481 92.885c0-9.992 3.889-19.384 10.956-26.452 7.063-7.063 16.46-10.956 26.452-10.956h11.079l-17.747 30.74-30.74 17.747zM8.606 166.817c-4.996-8.655-6.322-18.735-3.735-28.385 2.586-9.65 8.777-17.716 17.428-22.712l9.596-5.538v35.495l-17.747 30.74zM22.295 244.281c-8.655-4.996-14.842-13.062-17.428-22.712-2.586-9.65-1.261-19.734 3.736-28.385l5.537-9.596 17.747 30.74v35.495zM72.885 304.517c-9.992 0-19.384-3.889-26.452-10.957-7.063-7.063-10.956-16.46-10.956-26.451v-11.08l30.74 17.747 17.747 30.741zM146.817 331.391c-8.655 4.996-18.735 6.322-28.385 3.735-9.65-2.586-17.716-8.777-22.712-17.428l-5.538-9.596h35.495l30.74 17.747zM224.281 317.702c-4.996 8.655-13.062 14.842-22.712 17.428-9.65 2.586-19.734 1.261-28.385-3.735l-9.596-5.538 30.74-17.747h35.495zM284.517 267.112c0 9.992-3.889 19.384-10.957 26.452-7.063 7.063-16.46 10.956-26.451 10.957h-11.08l17.747-30.741 30.741-17.747zM315.13 221.565c-2.586 9.65-8.777 17.716-17.428 22.712l-9.596 5.538v-35.494l17.747-30.741 5.538 9.596c4.996 8.658 6.326 18.739 3.739 28.389z" fill="#373bc8" data-fill-palette-color="tertiary"></path></g><g transform="matrix(1,0,0,1,64.00000000000001,108.209659030458)"><svg viewBox="0 0 191.99999999999997 143.580681939084" height="143.580681939084" width="191.99999999999997"><g><svg viewBox="0 0 192.00000000000003 143.58068193908403" height="143.580681939084" width="191.99999999999997"><g transform="matrix(1,0,0,1,0,98.7163190263987)"><svg viewBox="0 0 192.00000000000003 44.86436291268534" height="44.86436291268534" width="192.00000000000003"><g><svg viewBox="0 0 192.00000000000003 44.86436291268534" height="44.86436291268534" width="192.00000000000003"><g><svg viewBox="0 0 192.00000000000003 24.197693574958812" height="24.197693574958812" width="192.00000000000003"><g transform="matrix(1,0,0,1,0,0)"><svg width="192.00000000000003" viewBox="2.25 -35.75 364.1700134277344 45.900001525878906" height="24.197693574958812" data-palette-color="#373bc8"><path d="M14.25 0.6L14.25 0.6Q10.55 0.6 7.85-1.18 5.15-2.95 3.7-6 2.25-9.05 2.25-12.75L2.25-12.75Q2.25-16.5 3.85-19.53 5.45-22.55 8.45-24.33 11.45-26.1 15.65-26.1L15.65-26.1Q19.7-26.1 22.6-24.35 25.5-22.6 27.08-19.6 28.65-16.6 28.65-12.9L28.65-12.9 28.65 0 24 0 24-5.2 23.9-5.2Q23.15-3.75 21.88-2.43 20.6-1.1 18.7-0.25 16.8 0.6 14.25 0.6ZM15.45-3.35L15.45-3.35Q17.95-3.35 19.88-4.58 21.8-5.8 22.88-7.98 23.95-10.15 23.95-12.85L23.95-12.85Q23.95-15.5 22.93-17.6 21.9-19.7 20-20.93 18.1-22.15 15.55-22.15L15.55-22.15Q12.85-22.15 10.93-20.9 9-19.65 7.98-17.53 6.95-15.4 6.95-12.7L6.95-12.7Q6.95-10.1 7.95-7.98 8.95-5.85 10.85-4.6 12.75-3.35 15.45-3.35ZM48.35 0L35.6 0 35.6-3.95 47.8-3.95Q49-3.95 49.87-4.48 50.75-5 51.2-5.85 51.65-6.7 51.65-7.65L51.65-7.65Q51.65-8.55 51.25-9.33 50.85-10.1 50.02-10.58 49.2-11.05 48.05-11.05L48.05-11.05 42.9-11.05Q40.45-11.05 38.62-11.88 36.8-12.7 35.77-14.3 34.75-15.9 34.75-18.2L34.75-18.2Q34.75-20.15 35.7-21.8 36.65-23.45 38.35-24.48 40.05-25.5 42.25-25.5L42.25-25.5 54-25.5 54-21.55 42.7-21.55Q41.15-21.55 40.25-20.6 39.35-19.65 39.35-18.35L39.35-18.35Q39.35-17.1 40.27-16.18 41.2-15.25 42.9-15.25L42.9-15.25 47.8-15.25Q50.55-15.25 52.42-14.38 54.3-13.5 55.27-11.85 56.25-10.2 56.25-7.8L56.25-7.8Q56.25-5.75 55.25-3.98 54.25-2.2 52.47-1.1 50.7 0 48.35 0L48.35 0ZM76.25 0L70.25 0Q66.85 0 64.92-1.95 63-3.9 63-7.25L63-7.25 63-31.9 67.6-31.9 67.6-7.55Q67.6-5.9 68.52-4.93 69.45-3.95 71.1-3.95L71.1-3.95 76.25-3.95 76.25 0ZM76.35-21.55L58.6-21.55 58.6-25.5 76.35-25.5 76.35-21.55ZM86.34 0L81.74 0 81.74-18.25Q81.74-21.65 83.67-23.58 85.59-25.5 88.99-25.5L88.99-25.5 94.24-25.5 94.24-21.55 89.84-21.55Q88.19-21.55 87.27-20.6 86.34-19.65 86.34-17.95L86.34-17.95 86.34 0ZM110.49 0.6L110.49 0.6Q106.59 0.6 103.59-1.18 100.59-2.95 98.84-5.98 97.09-9 97.09-12.75L97.09-12.75Q97.09-16.5 98.84-19.53 100.59-22.55 103.59-24.33 106.59-26.1 110.49-26.1L110.49-26.1Q114.39-26.1 117.42-24.33 120.44-22.55 122.17-19.53 123.89-16.5 123.89-12.75L123.89-12.75Q123.89-9 122.17-5.98 120.44-2.95 117.42-1.18 114.39 0.6 110.49 0.6ZM110.49-3.35L110.49-3.35Q113.14-3.35 115.09-4.6 117.04-5.85 118.14-7.98 119.24-10.1 119.24-12.75L119.24-12.75Q119.24-15.4 118.14-17.53 117.04-19.65 115.09-20.9 113.14-22.15 110.49-22.15L110.49-22.15Q107.89-22.15 105.92-20.9 103.94-19.65 102.84-17.53 101.74-15.4 101.74-12.75L101.74-12.75Q101.74-10.1 102.84-7.98 103.94-5.85 105.92-4.6 107.89-3.35 110.49-3.35ZM134.39 0L129.79 0 129.79-14.75Q129.79-18.15 131.31-20.7 132.84-23.25 135.54-24.68 138.24-26.1 141.69-26.1L141.69-26.1Q145.19-26.1 147.86-24.68 150.54-23.25 152.06-20.7 153.59-18.15 153.59-14.75L153.59-14.75 153.59 0 148.99 0 148.99-14.7Q148.99-17 147.96-18.68 146.94-20.35 145.26-21.25 143.59-22.15 141.69-22.15L141.69-22.15Q139.79-22.15 138.11-21.25 136.44-20.35 135.41-18.68 134.39-17 134.39-14.7L134.39-14.7 134.39 0ZM172.89 0.6L172.89 0.6Q168.99 0.6 165.99-1.18 162.99-2.95 161.24-5.98 159.49-9 159.49-12.75L159.49-12.75Q159.49-16.5 161.24-19.53 162.99-22.55 165.99-24.33 168.99-26.1 172.89-26.1L172.89-26.1Q176.79-26.1 179.81-24.33 182.84-22.55 184.56-19.53 186.29-16.5 186.29-12.75L186.29-12.75Q186.29-9 184.56-5.98 182.84-2.95 179.81-1.18 176.79 0.6 172.89 0.6ZM172.89-3.35L172.89-3.35Q175.54-3.35 177.49-4.6 179.44-5.85 180.54-7.98 181.64-10.1 181.64-12.75L181.64-12.75Q181.64-15.4 180.54-17.53 179.44-19.65 177.49-20.9 175.54-22.15 172.89-22.15L172.89-22.15Q170.29-22.15 168.31-20.9 166.34-19.65 165.24-17.53 164.14-15.4 164.14-12.75L164.14-12.75Q164.14-10.1 165.24-7.98 166.34-5.85 168.31-4.6 170.29-3.35 172.89-3.35ZM196.78 0L192.18 0 192.18-15.35Q192.18-18.3 193.53-20.75 194.88-23.2 197.43-24.65 199.98-26.1 203.58-26.1L203.58-26.1Q205.33-26.1 207.08-25.63 208.83-25.15 210.33-24.03 211.83-22.9 212.73-21L212.73-21 212.78-21Q213.78-22.9 215.28-24.03 216.78-25.15 218.53-25.63 220.28-26.1 222.08-26.1L222.08-26.1Q225.63-26.1 228.18-24.65 230.73-23.2 232.08-20.75 233.43-18.3 233.43-15.35L233.43-15.35 233.43 0 228.83 0 228.83-15.35Q228.83-17.25 227.93-18.8 227.03-20.35 225.51-21.25 223.98-22.15 222.03-22.15L222.03-22.15Q220.13-22.15 218.53-21.23 216.93-20.3 216.01-18.78 215.08-17.25 215.08-15.35L215.08-15.35 215.08 0 210.48 0 210.48-15.35Q210.48-17.25 209.56-18.78 208.63-20.3 207.06-21.23 205.48-22.15 203.53-22.15L203.53-22.15Q201.63-22.15 200.11-21.25 198.58-20.35 197.68-18.8 196.78-17.25 196.78-15.35L196.78-15.35 196.78 0ZM251.33 0.6L251.33 0.6Q247.63 0.6 244.93-1.18 242.23-2.95 240.78-6 239.33-9.05 239.33-12.75L239.33-12.75Q239.33-16.5 240.93-19.53 242.53-22.55 245.53-24.33 248.53-26.1 252.73-26.1L252.73-26.1Q256.78-26.1 259.68-24.35 262.58-22.6 264.16-19.6 265.73-16.6 265.73-12.9L265.73-12.9 265.73 0 261.08 0 261.08-5.2 260.98-5.2Q260.23-3.75 258.96-2.43 257.68-1.1 255.78-0.25 253.88 0.6 251.33 0.6ZM252.53-3.35L252.53-3.35Q255.03-3.35 256.96-4.58 258.88-5.8 259.96-7.98 261.03-10.15 261.03-12.85L261.03-12.85Q261.03-15.5 260.01-17.6 258.98-19.7 257.08-20.93 255.18-22.15 252.63-22.15L252.63-22.15Q249.93-22.15 248.01-20.9 246.08-19.65 245.06-17.53 244.03-15.4 244.03-12.7L244.03-12.7Q244.03-10.1 245.03-7.98 246.03-5.85 247.93-4.6 249.83-3.35 252.53-3.35ZM291.83 0L276.78 0Q275.18 0 273.93-0.75 272.68-1.5 271.95-2.78 271.23-4.05 271.23-5.55L271.23-5.55Q271.23-7.15 272-8.38 272.78-9.6 274.28-10.6L274.28-10.6 286.03-18.05Q286.78-18.5 287-18.95 287.23-19.4 287.23-19.9L287.23-19.9Q287.23-20.5 286.73-21.03 286.23-21.55 285.43-21.55L285.43-21.55 272.48-21.55 272.48-25.5 286.83-25.5Q288.38-25.5 289.6-24.75 290.83-24 291.55-22.73 292.28-21.45 292.28-19.95L292.28-19.95Q292.28-18.4 291.5-17.13 290.73-15.85 289.28-14.9L289.28-14.9 277.53-7.45Q276.78-7 276.55-6.55 276.33-6.1 276.33-5.6L276.33-5.6Q276.33-5 276.83-4.48 277.33-3.95 278.18-3.95L278.18-3.95 291.83-3.95 291.83 0ZM303.23 0L298.58 0 298.58-25.5 303.23-25.5 303.23 0ZM300.93-29.55L300.93-29.55Q299.68-29.55 298.75-30.48 297.83-31.4 297.83-32.65L297.83-32.65Q297.83-33.9 298.75-34.83 299.68-35.75 300.93-35.75L300.93-35.75Q302.18-35.75 303.1-34.83 304.03-33.9 304.03-32.65L304.03-32.65Q304.03-31.4 303.1-30.48 302.18-29.55 300.93-29.55ZM315.07 0L310.47 0 310.47-14.75Q310.47-18.15 312-20.7 313.52-23.25 316.22-24.68 318.92-26.1 322.37-26.1L322.37-26.1Q325.87-26.1 328.55-24.68 331.22-23.25 332.75-20.7 334.27-18.15 334.27-14.75L334.27-14.75 334.27 0 329.67 0 329.67-14.7Q329.67-17 328.65-18.68 327.62-20.35 325.95-21.25 324.27-22.15 322.37-22.15L322.37-22.15Q320.47-22.15 318.8-21.25 317.12-20.35 316.1-18.68 315.07-17 315.07-14.7L315.07-14.7 315.07 0ZM358.77 10.15L345.42 10.15 345.42 6.2 357.92 6.2Q359.77 6.2 360.8 5.1 361.82 4 361.82 2.2L361.82 2.2 361.82-4.8 361.72-4.8Q360.77-3.35 359.42-2.2 358.07-1.05 356.32-0.38 354.57 0.3 352.37 0.3L352.37 0.3Q348.77 0.3 346.02-1.38 343.27-3.05 341.72-6.03 340.17-9 340.17-12.85L340.17-12.85Q340.17-16.6 341.72-19.6 343.27-22.6 346.2-24.35 349.12-26.1 353.27-26.1L353.27-26.1Q357.27-26.1 360.22-24.4 363.17-22.7 364.8-19.68 366.42-16.65 366.42-12.6L366.42-12.6 366.42 2.5Q366.42 6 364.37 8.08 362.32 10.15 358.77 10.15L358.77 10.15ZM353.22-3.65L353.22-3.65Q355.77-3.65 357.7-4.85 359.62-6.05 360.7-8.13 361.77-10.2 361.77-12.8L361.77-12.8Q361.77-15.45 360.72-17.55 359.67-19.65 357.77-20.88 355.87-22.1 353.22-22.1L353.22-22.1Q350.62-22.1 348.75-20.88 346.87-19.65 345.85-17.53 344.82-15.4 344.82-12.75L344.82-12.75Q344.82-10.25 345.85-8.18 346.87-6.1 348.75-4.88 350.62-3.65 353.22-3.65Z" opacity="1" transform="matrix(1,0,0,1,0,0)" fill="#000000" class="undefined-text-0" data-fill-palette-color="primary" id="text-0"></path></svg></g></svg></g><g transform="matrix(1,0,0,1,48.56524532046018,29.91018828336079)"><svg viewBox="0 0 94.86950935907967 14.954174629324546" height="14.954174629324546" width="94.86950935907967"><g transform="matrix(1,0,0,1,0,0)"><svg width="94.86950935907967" viewBox="1.399999976158142 -35.900001525878906 336.510009765625 53.05000305175781" height="14.954174629324546" data-palette-color="#373bc8"><path d="M6.75 1.1Q2.55 1.1 1.4-2.5L1.4-2.5Q1.8-2.5 2.48-2.48 3.15-2.45 3.6-2.35L3.6-2.35Q4.3-2.25 4.6-2.25L4.6-2.25Q6.85-2.25 8.35-4.25L8.35-4.25Q9.4-5.7 9.4-7.2L9.4-7.2Q9.4-8.2 8.9-9.15L8.9-9.15Q7.8-11.1 6.2-13.45L6.2-13.45Q5.15-15 4.3-16.4L4.3-16.4Q3.3-18 3.3-19.95L3.3-19.95Q3.3-21.75 4.33-23.13 5.35-24.5 7.35-24.85L7.35-24.85 8.95-25.15Q11.55-25.65 12.85-25.65L12.85-25.65Q15-25.65 16.65-24.65L16.65-24.65Q17-24.4 17.38-23.78 17.75-23.15 17.95-22.8L17.95-22.8Q17.6-22.65 16.98-22.33 16.35-22 15.9-21.95L15.9-21.95Q15.2-21.85 13.8-21.85L13.8-21.85Q12.45-21.85 11.75-21.8L11.75-21.8Q10.15-21.65 9.22-20.73 8.3-19.8 8.3-18.5L8.3-18.5Q8.3-17.5 8.9-16.45L8.9-16.45Q10.25-14.2 12.65-11.3L12.65-11.3Q14.45-9.05 14.45-6.65L14.45-6.65Q14.45-5.35 13.85-3.9L13.85-3.9Q11.8 1.1 6.75 1.1L6.75 1.1ZM31.55-4Q30.05-2.4 28.3-2.4L28.3-2.4Q26.85-2.4 25.25-3.35L25.25-3.35 25.1 1.2Q24.85 6.2 24.85 9.9L24.85 9.9Q24.85 10.6 24.95 12.1L24.95 12.1Q25.05 13.6 25.05 14.3L25.05 14.3Q25.05 15.05 25 15.4L25 15.4Q24.95 15.85 24.4 16.38 23.85 16.9 23.3 17.05L23.3 17.05Q22.9 17.15 22.75 17.15L22.75 17.15Q21.6 17.15 20.52 16.15 19.45 15.15 19.5 14.05L19.5 14.05Q19.6 10.3 19.9 3.2L19.9 3.2 20.25-7.7Q20.35-10.7 19.9-12.75L19.9-12.75Q19.8-13.35 19.8-13.55L19.8-13.55Q19.8-14.35 20.27-14.8 20.75-15.25 21.55-15.35L21.55-15.35Q22.8-15.45 23.55-16.03 24.3-16.6 25.3-17.85L25.3-17.85Q27.1-20.1 29.25-20.1L29.25-20.1Q31.65-20.1 34.7-17.15L34.7-17.15Q36.1-15.8 36.1-13.5L36.1-13.5Q36.1-12.65 35.95-11.8L35.95-11.8Q35.6-9.7 34.47-7.9 33.35-6.1 31.55-4L31.55-4ZM26.9-12.35Q25.8-9.35 25.8-7L25.8-7Q25.8-6.45 25.85-6.2L25.85-6.2 26.45-5.9Q27.45-6.2 28.55-7.65 29.65-9.1 30.37-10.93 31.1-12.75 31.1-14.15L31.1-14.15Q31.1-14.75 30.85-15.35L30.85-15.35Q30.5-16 29.8-16L29.8-16Q28.9-16 28.5-15.35L28.5-15.35Q28.35-15.15 27.8-14.25 27.25-13.35 26.9-12.35L26.9-12.35ZM53.34-2.55Q52.89-2.75 52.45-2.75L52.45-2.75Q52-2.75 51.67-2.53 51.34-2.3 50.95-1.85L50.95-1.85Q50.34-1.25 49.7-0.85L49.7-0.85Q49.09-0.5 47.49-0.2L47.49-0.2Q46.8-0.1 46.34-0.1L46.34-0.1Q44.24-0.1 41.97-1.03 39.7-1.95 38.74-3.25L38.74-3.25Q37.74-4.65 37.8-6.25L37.8-6.25Q37.84-8.65 39.8-11.05L39.8-11.05Q41.7-13.35 43.27-14.3 44.84-15.25 47.59-15.5L47.59-15.5Q48.2-15.5 49.32-15.7 50.45-15.9 50.45-16.25L50.45-16.25Q50.45-16.95 49.82-17.53 49.2-18.1 47.3-18.1L47.3-18.1Q46.59-18.1 45.2-18L45.2-18Q43.8-17.9 43.24-17.9L43.24-17.9Q41.55-17.9 40.8-18.45L40.8-18.45Q40.59-18.55 40.59-19.4L40.59-19.4Q40.59-20.9 41.64-21.3L41.64-21.3Q43.8-22.1 46.09-22.15L46.09-22.15Q48.99-22.15 51.47-20.88 53.95-19.6 55.09-17.7L55.09-17.7Q56.25-15.8 56.59-12.45L56.59-12.45Q57-8.7 57-2.9L57-2.9Q57-1.3 56.55-1.05L56.55-1.05Q56.14-0.8 55.8-0.8L55.8-0.8Q55.34-0.8 54.97-1.07 54.59-1.35 54.14-1.85L54.14-1.85Q53.7-2.4 53.34-2.55L53.34-2.55ZM45.45-3.15Q47.8-3.85 50.05-5.4L50.05-5.4Q50.55-5.75 50.95-6.3 51.34-6.85 51.45-7L51.45-7Q51.55-7.15 51.62-7.88 51.7-8.6 51.64-9.05L51.64-9.05Q51.59-9.2 51.47-9.85 51.34-10.5 51.09-11L51.09-11Q50.84-11.4 50.3-11.75 49.74-12.1 49.3-12.05L49.3-12.05Q48.34-12 47.24-11.35 46.14-10.7 45.2-9.6L45.2-9.6Q44.24-8.45 43.72-7.28 43.2-6.1 43.2-5.1L43.2-5.1Q43.3-3.75 43.95-3.3L43.95-3.3Q44.3-3.05 44.8-3.05L44.8-3.05Q45.2-3.05 45.45-3.15L45.45-3.15ZM80.94-5.1Q79.44-3.4 77.89-2.43 76.34-1.45 74.44-1.45L74.44-1.45Q74.04-1.45 73.34-1.55L73.34-1.55 72.34-1.5Q66.04-1.45 63.14-7.5L63.14-7.5Q62.49-8.9 62.49-10.85L62.49-10.85Q62.49-12.55 62.99-14.1 63.49-15.65 64.39-16.65L64.39-16.65 65.34-17.8Q66.04-18.7 66.44-19.05L66.44-19.05Q68.19-20.75 71.09-20.75L71.09-20.75Q72.59-20.75 74.04-20.25 75.49-19.75 76.59-18.9L76.59-18.9Q76.79-18.75 76.99-18.28 77.19-17.8 77.19-17.5L77.19-17.5Q77.19-17.1 76.59-16.63 75.99-16.15 75.49-16.2L75.49-16.2Q72.09-16.6 70.04-14.58 67.99-12.55 67.99-9.05L67.99-9.05Q67.99-6.75 68.97-5.8 69.94-4.85 72.19-4.85L72.19-4.85Q73.59-4.85 74.84-5.43 76.09-6 77.74-7.05L77.74-7.05 78.69-7.65Q79.19-7.9 80.02-7.98 80.84-8.05 81.29-8.1L81.29-8.1Q81.24-7.65 81.27-7.23 81.29-6.8 81.29-6.55L81.29-6.55Q81.29-5.45 80.94-5.1L80.94-5.1ZM91.59-7.8Q91.09-7.5 90.14-7.5L90.14-7.5Q89.79-7.5 89.29-7.55 88.79-7.6 88.44-7.55L88.44-7.55Q88.84-5.9 90.34-4.88 91.84-3.85 93.69-3.85L93.69-3.85Q95.29-3.85 96.54-4.55L96.54-4.55Q98.39-5.5 99.74-6.8L99.74-6.8Q100.69-7.75 101.54-7.75L101.54-7.75Q102.09-7.75 102.49-7.2L102.49-7.2Q102.89-6.55 102.89-5.6L102.89-5.6Q102.89-4.6 102.49-4.05L102.49-4.05Q101.19-2.05 99.12-1.3 97.04-0.55 94.29-0.55L94.29-0.55Q91.44-0.55 88.79-1.8 86.14-3.05 84.27-5.23 82.39-7.4 81.79-10.05L81.79-10.05Q81.39-11.6 81.39-13.1L81.39-13.1Q81.39-15.45 82.72-16.9 84.04-18.35 86.99-19.65L86.99-19.65Q89.69-20.8 91.99-20.8L91.99-20.8Q93.64-20.8 95.19-20.3L95.19-20.3Q99.99-18.8 99.99-16.2L99.99-16.2Q99.99-14.55 98.04-12.2L98.04-12.2Q97.09-11.1 95.79-10.25 94.49-9.4 93.27-8.72 92.04-8.05 91.59-7.8L91.59-7.8ZM93.69-17.05Q93.64-17.3 93.32-17.48 92.99-17.65 92.94-17.7L92.94-17.7Q91.59-17.8 90.19-16.93 88.79-16.05 87.87-14.7 86.94-13.35 86.94-12.1L86.94-12.1 86.99-11.7Q87.04-11.5 87.52-11.2 87.99-10.9 88.09-11L88.09-11Q91.64-13.65 93.44-15.25L93.44-15.25Q93.74-15.55 93.74-16.35L93.74-16.35Q93.74-16.85 93.69-17.05L93.69-17.05ZM123.09-23.3Q122.99-23 122.36-22.65 121.74-22.3 121.34-22L121.34-22 119.94-22.75Q117.89-23.85 117.14-24.5L117.14-24.5Q116.74-24.8 116.74-25.25L116.74-25.25Q116.74-25.55 116.96-25.78 117.19-26 117.64-26L117.64-26Q119.59-26 122.39-25L122.39-25Q122.69-24.95 122.94-24.33 123.19-23.7 123.09-23.3L123.09-23.3ZM118.59-14Q118.74-14.65 118.79-14.95 118.84-15.25 118.84-15.6L118.84-15.6Q118.84-16.3 119.26-16.7 119.69-17.1 120.89-17.1L120.89-17.1Q122.29-17.1 123.36-16.23 124.44-15.35 124.69-13.95L124.69-13.95Q124.84-13.25 124.89-12.4 124.94-11.55 124.94-11.3L124.94-11.3 125.64-2.75Q125.79-1.4 125.26-0.68 124.74 0.05 123.29 0.05L123.29 0.05Q122.04 0.05 121.16-0.65 120.29-1.35 120.09-2.45L120.09-2.45 118.79-13.05 118.59-14ZM134.13 1.1Q129.93 1.1 128.78-2.5L128.78-2.5Q129.18-2.5 129.86-2.48 130.53-2.45 130.98-2.35L130.98-2.35Q131.68-2.25 131.98-2.25L131.98-2.25Q134.23-2.25 135.73-4.25L135.73-4.25Q136.78-5.7 136.78-7.2L136.78-7.2Q136.78-8.2 136.28-9.15L136.28-9.15Q135.18-11.1 133.58-13.45L133.58-13.45Q132.53-15 131.68-16.4L131.68-16.4Q130.68-18 130.68-19.95L130.68-19.95Q130.68-21.75 131.71-23.13 132.73-24.5 134.73-24.85L134.73-24.85 136.33-25.15Q138.93-25.65 140.23-25.65L140.23-25.65Q142.38-25.65 144.03-24.65L144.03-24.65Q144.38-24.4 144.76-23.78 145.13-23.15 145.33-22.8L145.33-22.8Q144.98-22.65 144.36-22.33 143.73-22 143.28-21.95L143.28-21.95Q142.58-21.85 141.18-21.85L141.18-21.85Q139.83-21.85 139.13-21.8L139.13-21.8Q137.53-21.65 136.61-20.73 135.68-19.8 135.68-18.5L135.68-18.5Q135.68-17.5 136.28-16.45L136.28-16.45Q137.63-14.2 140.03-11.3L140.03-11.3Q141.83-9.05 141.83-6.65L141.83-6.65Q141.83-5.35 141.23-3.9L141.23-3.9Q139.18 1.1 134.13 1.1L134.13 1.1ZM158.58-18.65Q158.23-19.05 158.1-19.5 157.98-19.95 157.88-20.75L157.88-20.75Q158.33-21.8 159.53-21.8L159.53-21.8Q160.13-21.7 160.38-21.7L160.38-21.7Q161.38-21.7 161.63-22.3 161.88-22.9 161.88-23.7 161.88-24.5 161.88-24.95L161.88-24.95 162.03-27.95Q162.08-28.95 162.15-30.43 162.23-31.9 162.33-33.85L162.33-33.85Q162.38-34.9 162.85-35.4 163.33-35.9 164.18-35.9L164.18-35.9Q164.78-35.9 165.13-35.8L165.13-35.8Q167.18-35.35 167.88-34.5 168.58-33.65 168.83-31.95L168.83-31.95Q168.88-31.6 168.73-30.5L168.73-30.5 167.83-22.7Q167.78-22.4 167.68-21.98 167.58-21.55 167.58-21.35L167.58-21.35Q167.58-20.9 168.08-20.75 168.58-20.6 169.93-20.65L169.93-20.65Q172.23-21.15 173.43-21.3L173.43-21.3Q173.68-21.35 174.23-21.35L174.23-21.35Q174.83-21.35 175.03-21.2L175.03-21.2Q175.23-21.1 175.35-20.63 175.48-20.15 175.48-19.55L175.48-19.55Q175.48-19 175.35-18.55 175.23-18.1 175.03-18.05L175.03-18.05Q173.68-17.65 171.83-17.4L171.83-17.4Q169.63-17 168.58-16.7L168.58-16.7Q168.03-16.55 167.48-15.95 166.93-15.35 166.88-14.85L166.88-14.85Q166.78-12.4 166.73-9.85L166.73-9.85Q166.68-7.9 166.88-5.95L166.88-5.95Q167.03-4.3 167.53-3.58 168.03-2.85 169.03-2.85L169.03-2.85Q169.83-2.85 171.33-3.4L171.33-3.4Q172.13-3.75 172.73-3.75L172.73-3.75Q173.68-3.75 174.08-2.7L174.08-2.7Q174.23-2.35 174.23-2L174.23-2Q174.23-1.35 173.75-0.95 173.28-0.55 172.48-0.25L172.48-0.25Q170.98 0.3 169.43 0.35L169.43 0.35Q167.33 0.35 165.48-0.68 163.63-1.7 162.55-3.55 161.48-5.4 161.63-7.8L161.63-7.8Q161.68-8.75 161.68-10.8L161.68-10.8Q161.68-14.05 161.43-17.4L161.43-17.4Q161.38-17.7 161.08-17.82 160.78-17.95 160.08-18.1L160.08-18.1Q158.93-18.3 158.58-18.65L158.58-18.65ZM185.03-26.7Q185.08-21.85 185.3-18.73 185.53-15.6 186.38-12.1L186.38-12.1Q188.48-12.85 190.23-12.85L190.23-12.85Q193.18-12.85 195.33-11.1 197.48-9.35 198.23-6.75L198.23-6.75Q198.83-4.85 198.83-1.65L198.83-1.65 198.78 2.25Q198.78 2.6 198.38 3.05 197.98 3.5 197.58 3.6L197.58 3.6Q197.43 3.65 197.13 3.65L197.13 3.65Q195.98 3.65 194.73 2.53 193.48 1.4 193.43 0.3L193.43 0.3 193.33-2.3Q193.33-3.2 193.23-4.9L193.23-4.9Q193.13-6.65 192.83-7.4L192.83-7.4Q192.53-8.25 192.08-8.7 191.63-9.15 191.08-9.15L191.08-9.15Q190.68-9.15 190.2-8.8 189.73-8.45 189.38-7.85L189.38-7.85Q188.33-6.2 186.63-1.35L186.63-1.35Q186.08 0.4 184.68 0.4L184.68 0.4Q184.53 0.4 184.03 0.3L184.03 0.3Q183.73 0.2 182.88-0.03 182.03-0.25 181.55-0.75 181.08-1.25 181.08-2.2L181.08-2.2Q181.08-11.65 179.93-17.85L179.93-17.85Q179.38-20.95 179.38-25L179.38-25 179.38-28.35 179.38-30.1Q179.38-30.8 180.13-31.3 180.88-31.8 181.83-31.8L181.83-31.8Q182.63-31.8 183.18-31.45L183.18-31.45Q184.18-30.85 184.6-29.95 185.03-29.05 185.03-27.7L185.03-27.7 185.03-26.7ZM211.22-7.8Q210.72-7.5 209.77-7.5L209.77-7.5Q209.42-7.5 208.92-7.55 208.42-7.6 208.07-7.55L208.07-7.55Q208.47-5.9 209.97-4.88 211.47-3.85 213.32-3.85L213.32-3.85Q214.92-3.85 216.17-4.55L216.17-4.55Q218.02-5.5 219.37-6.8L219.37-6.8Q220.32-7.75 221.17-7.75L221.17-7.75Q221.72-7.75 222.12-7.2L222.12-7.2Q222.52-6.55 222.52-5.6L222.52-5.6Q222.52-4.6 222.12-4.05L222.12-4.05Q220.82-2.05 218.75-1.3 216.67-0.55 213.92-0.55L213.92-0.55Q211.07-0.55 208.42-1.8 205.77-3.05 203.9-5.23 202.02-7.4 201.42-10.05L201.42-10.05Q201.02-11.6 201.02-13.1L201.02-13.1Q201.02-15.45 202.35-16.9 203.67-18.35 206.62-19.65L206.62-19.65Q209.32-20.8 211.62-20.8L211.62-20.8Q213.27-20.8 214.82-20.3L214.82-20.3Q219.62-18.8 219.62-16.2L219.62-16.2Q219.62-14.55 217.67-12.2L217.67-12.2Q216.72-11.1 215.42-10.25 214.12-9.4 212.9-8.72 211.67-8.05 211.22-7.8L211.22-7.8ZM213.32-17.05Q213.27-17.3 212.95-17.48 212.62-17.65 212.57-17.7L212.57-17.7Q211.22-17.8 209.82-16.93 208.42-16.05 207.5-14.7 206.57-13.35 206.57-12.1L206.57-12.1 206.62-11.7Q206.67-11.5 207.15-11.2 207.62-10.9 207.72-11L207.72-11Q211.27-13.65 213.07-15.25L213.07-15.25Q213.37-15.55 213.37-16.35L213.37-16.35Q213.37-16.85 213.32-17.05L213.32-17.05ZM250.07-4Q248.57-2.4 246.82-2.4L246.82-2.4Q245.37-2.4 243.77-3.35L243.77-3.35 243.62 1.2Q243.37 6.2 243.37 9.9L243.37 9.9Q243.37 10.6 243.47 12.1L243.47 12.1Q243.57 13.6 243.57 14.3L243.57 14.3Q243.57 15.05 243.52 15.4L243.52 15.4Q243.47 15.85 242.92 16.38 242.37 16.9 241.82 17.05L241.82 17.05Q241.42 17.15 241.27 17.15L241.27 17.15Q240.12 17.15 239.04 16.15 237.97 15.15 238.02 14.05L238.02 14.05Q238.12 10.3 238.42 3.2L238.42 3.2 238.77-7.7Q238.87-10.7 238.42-12.75L238.42-12.75Q238.32-13.35 238.32-13.55L238.32-13.55Q238.32-14.35 238.79-14.8 239.27-15.25 240.07-15.35L240.07-15.35Q241.32-15.45 242.07-16.03 242.82-16.6 243.82-17.85L243.82-17.85Q245.62-20.1 247.77-20.1L247.77-20.1Q250.17-20.1 253.22-17.15L253.22-17.15Q254.62-15.8 254.62-13.5L254.62-13.5Q254.62-12.65 254.47-11.8L254.47-11.8Q254.12-9.7 252.99-7.9 251.87-6.1 250.07-4L250.07-4ZM245.42-12.35Q244.32-9.35 244.32-7L244.32-7Q244.32-6.45 244.37-6.2L244.37-6.2 244.97-5.9Q245.97-6.2 247.07-7.65 248.17-9.1 248.89-10.93 249.62-12.75 249.62-14.15L249.62-14.15Q249.62-14.75 249.37-15.35L249.37-15.35Q249.02-16 248.32-16L248.32-16Q247.42-16 247.02-15.35L247.02-15.35Q246.87-15.15 246.32-14.25 245.77-13.35 245.42-12.35L245.42-12.35ZM265.37-2.3Q266.37-3.5 266.82-4.2L266.82-4.2Q267.37-4.95 267.97-4.95L267.97-4.95Q268.57-4.95 268.87-4.2L268.87-4.2Q269.57-2.2 269.57-1.05L269.57-1.05Q269.57-0.55 269.52-0.3L269.52-0.3Q269.32 0.7 268.39 1.1 267.47 1.5 266.22 1.4L266.22 1.4Q265.77 1.4 264.69 1.4 263.62 1.4 262.84 1.1 262.07 0.8 261.47 0.1L261.47 0.1Q260.17-1.45 260.17-2.9L260.17-2.9Q260.17-14.6 260.07-20.5L260.07-20.5 260.02-29.3Q260.02-31.05 259.67-32.5L259.67-32.5Q259.62-32.75 259.62-33.1L259.62-33.1Q259.62-34.95 262.12-34.95L262.12-34.95Q263.77-34.95 264.89-33.88 266.02-32.8 265.92-31.05L265.92-31.05Q265.77-28.4 265.52-23.1L265.52-23.1 265.22-17.1Q264.82-8.6 264.67-4.35L264.67-4.35Q264.62-3.85 264.72-3.25 264.82-2.65 264.87-2.5L264.87-2.5 265.37-2.3ZM288.36-2.55Q287.91-2.75 287.46-2.75L287.46-2.75Q287.01-2.75 286.69-2.53 286.36-2.3 285.96-1.85L285.96-1.85Q285.36-1.25 284.71-0.85L284.71-0.85Q284.11-0.5 282.51-0.2L282.51-0.2Q281.81-0.1 281.36-0.1L281.36-0.1Q279.26-0.1 276.99-1.03 274.71-1.95 273.76-3.25L273.76-3.25Q272.76-4.65 272.81-6.25L272.81-6.25Q272.86-8.65 274.81-11.05L274.81-11.05Q276.71-13.35 278.29-14.3 279.86-15.25 282.61-15.5L282.61-15.5Q283.21-15.5 284.34-15.7 285.46-15.9 285.46-16.25L285.46-16.25Q285.46-16.95 284.84-17.53 284.21-18.1 282.31-18.1L282.31-18.1Q281.61-18.1 280.21-18L280.21-18Q278.81-17.9 278.26-17.9L278.26-17.9Q276.56-17.9 275.81-18.45L275.81-18.45Q275.61-18.55 275.61-19.4L275.61-19.4Q275.61-20.9 276.66-21.3L276.66-21.3Q278.81-22.1 281.11-22.15L281.11-22.15Q284.01-22.15 286.49-20.88 288.96-19.6 290.11-17.7L290.11-17.7Q291.26-15.8 291.61-12.45L291.61-12.45Q292.01-8.7 292.01-2.9L292.01-2.9Q292.01-1.3 291.56-1.05L291.56-1.05Q291.16-0.8 290.81-0.8L290.81-0.8Q290.36-0.8 289.99-1.07 289.61-1.35 289.16-1.85L289.16-1.85Q288.71-2.4 288.36-2.55L288.36-2.55ZM280.46-3.15Q282.81-3.85 285.06-5.4L285.06-5.4Q285.56-5.75 285.96-6.3 286.36-6.85 286.46-7L286.46-7Q286.56-7.15 286.64-7.88 286.71-8.6 286.66-9.05L286.66-9.05Q286.61-9.2 286.49-9.85 286.36-10.5 286.11-11L286.11-11Q285.86-11.4 285.31-11.75 284.76-12.1 284.31-12.05L284.31-12.05Q283.36-12 282.26-11.35 281.16-10.7 280.21-9.6L280.21-9.6Q279.26-8.45 278.74-7.28 278.21-6.1 278.21-5.1L278.21-5.1Q278.31-3.75 278.96-3.3L278.96-3.3Q279.31-3.05 279.81-3.05L279.81-3.05Q280.21-3.05 280.46-3.15L280.46-3.15ZM315.96-5.1Q314.46-3.4 312.91-2.43 311.36-1.45 309.46-1.45L309.46-1.45Q309.06-1.45 308.36-1.55L308.36-1.55 307.36-1.5Q301.06-1.45 298.16-7.5L298.16-7.5Q297.51-8.9 297.51-10.85L297.51-10.85Q297.51-12.55 298.01-14.1 298.51-15.65 299.41-16.65L299.41-16.65 300.36-17.8Q301.06-18.7 301.46-19.05L301.46-19.05Q303.21-20.75 306.11-20.75L306.11-20.75Q307.61-20.75 309.06-20.25 310.51-19.75 311.61-18.9L311.61-18.9Q311.81-18.75 312.01-18.28 312.21-17.8 312.21-17.5L312.21-17.5Q312.21-17.1 311.61-16.63 311.01-16.15 310.51-16.2L310.51-16.2Q307.11-16.6 305.06-14.58 303.01-12.55 303.01-9.05L303.01-9.05Q303.01-6.75 303.99-5.8 304.96-4.85 307.21-4.85L307.21-4.85Q308.61-4.85 309.86-5.43 311.11-6 312.76-7.05L312.76-7.05 313.71-7.65Q314.21-7.9 315.04-7.98 315.86-8.05 316.31-8.1L316.31-8.1Q316.26-7.65 316.29-7.23 316.31-6.8 316.31-6.55L316.31-6.55Q316.31-5.45 315.96-5.1L315.96-5.1ZM326.61-7.8Q326.11-7.5 325.16-7.5L325.16-7.5Q324.81-7.5 324.31-7.55 323.81-7.6 323.46-7.55L323.46-7.55Q323.86-5.9 325.36-4.88 326.86-3.85 328.71-3.85L328.71-3.85Q330.31-3.85 331.56-4.55L331.56-4.55Q333.41-5.5 334.76-6.8L334.76-6.8Q335.71-7.75 336.56-7.75L336.56-7.75Q337.11-7.75 337.51-7.2L337.51-7.2Q337.91-6.55 337.91-5.6L337.91-5.6Q337.91-4.6 337.51-4.05L337.51-4.05Q336.21-2.05 334.13-1.3 332.06-0.55 329.31-0.55L329.31-0.55Q326.46-0.55 323.81-1.8 321.16-3.05 319.28-5.23 317.41-7.4 316.81-10.05L316.81-10.05Q316.41-11.6 316.41-13.1L316.41-13.1Q316.41-15.45 317.73-16.9 319.06-18.35 322.01-19.65L322.01-19.65Q324.71-20.8 327.01-20.8L327.01-20.8Q328.66-20.8 330.21-20.3L330.21-20.3Q335.01-18.8 335.01-16.2L335.01-16.2Q335.01-14.55 333.06-12.2L333.06-12.2Q332.11-11.1 330.81-10.25 329.51-9.4 328.28-8.72 327.06-8.05 326.61-7.8L326.61-7.8ZM328.71-17.05Q328.66-17.3 328.33-17.48 328.01-17.65 327.96-17.7L327.96-17.7Q326.61-17.8 325.21-16.93 323.81-16.05 322.88-14.7 321.96-13.35 321.96-12.1L321.96-12.1 322.01-11.7Q322.06-11.5 322.53-11.2 323.01-10.9 323.11-11L323.11-11Q326.66-13.65 328.46-15.25L328.46-15.25Q328.76-15.55 328.76-16.35L328.76-16.35Q328.76-16.85 328.71-17.05L328.71-17.05Z" opacity="1" transform="matrix(1,0,0,1,0,0)" fill="#000000" class="undefined-text-1" data-fill-palette-color="secondary" id="text-1"></path></svg></g></svg></g></svg></g></svg></g><g transform="matrix(1,0,0,1,49.49808784100166,0)"><svg viewBox="0 0 93.0038243179967 93.00382431799672" height="93.00382431799672" width="93.0038243179967"><g><svg></svg></g><g id="icon-0"><svg viewBox="0 0 93.0038243179967 93.00382431799672" height="93.00382431799672" width="93.0038243179967"><g><path d="M27.901 93.004c-15.409 0-27.901-12.492-27.901-27.901v-37.202c0-15.409 12.492-27.901 27.901-27.901h37.202c15.409 0 27.901 12.492 27.901 27.901v37.202c0 15.409-12.492 27.901-27.901 27.901z" fill="#000000" data-fill-palette-color="accent"></path></g><g transform="matrix(1,0,0,1,18.914392158998346,19.987075189012963)"><svg viewBox="0 0 55.17504000000001 53.02967393997079" height="53.02967393997079" width="55.17504000000001"><g><svg xmlns="http://www.w3.org/2000/svg" xmlns:xlink="http://www.w3.org/1999/xlink" version="1.1" x="0" y="0" viewBox="11.960000038146973 14.208000183105469 74.40300750732422 71.51000213623047" enable-background="new 0 0 100 100" xml:space="preserve" height="53.02967393997079" width="55.17504000000001" class="icon-x-0" data-fill-palette-color="quaternary" id="x-0"><path d="M85.021 39.668c0-3.311-2.693-6.002-6.002-6.002-3.311 0-6.004 2.691-6.004 6.002s2.693 6.004 6.004 6.004C82.327 45.672 85.021 42.979 85.021 39.668zM76.163 39.668c0-1.574 1.281-2.854 2.855-2.854 1.572 0 2.854 1.279 2.854 2.854s-1.281 2.855-2.854 2.855C77.444 42.523 76.163 41.242 76.163 39.668z" fill="#ffffff" data-fill-palette-color="quaternary"></path><path d="M45.181 25.115c-13.283 0-24.09 10.807-24.09 24.09 0 2.602 0.436 5.143 1.247 7.584-3.829 1.318-6.591 4.947-6.591 9.217 0 5.379 4.376 9.754 9.756 9.754 3.719 0 6.955-2.094 8.6-5.164 3.41 1.768 7.203 2.699 11.078 2.699 13.283 0 24.09-10.807 24.09-24.09S58.464 25.115 45.181 25.115zM60.987 35.289c2.375 2.695 4.09 5.986 4.845 9.633-2.618-1.605-4.443-4.328-4.822-7.449C60.921 36.742 60.919 36.012 60.987 35.289zM34.386 31.121c0.057 0.449 0.111 0.896 0.208 1.379 0.226 1.242 0.654 2.402 1.069 3.525 0.85 2.301 1.584 4.289 0.512 6.533-1.323 2.777-3.25 2.947-6.591 2.279l-0.499-0.088c-1.139-0.197-2.727-0.475-4.277-0.904C26.226 38.459 29.718 33.918 34.386 31.121zM24.391 45.809c1.604 0.436 3.199 0.713 4.354 0.912l0.47 0.082c0.998 0.199 2.033 0.367 3.05 0.367 2.2 0 4.306-0.789 5.716-3.75 1.438-3.006 0.482-5.59-0.441-8.088-0.402-1.09-0.782-2.119-0.98-3.207-0.143-0.717-0.221-1.381-0.268-2.018 2.11-0.986 4.398-1.65 6.816-1.887-0.524 2.514-0.068 5.33 1.383 8.66 2.457 5.791 4.344 11.369 0.479 15.977-3.278 4.018-8.233 2.842-13.481 1.598-2.135-0.508-4.342-1.031-6.363-1.133-0.211-0.01-0.418-0.008-0.625-0.01-0.266-1.346-0.408-2.717-0.408-4.107C24.091 48.045 24.21 46.916 24.391 45.809zM25.503 72.611c-3.644 0-6.607-2.963-6.607-6.605s2.964-6.605 6.607-6.605c3.641 0 6.604 2.963 6.604 6.605S29.144 72.611 25.503 72.611zM45.181 70.295c-3.543 0-7.004-0.893-10.086-2.574 0.099-0.559 0.16-1.129 0.16-1.715 0-1.129-0.203-2.209-0.558-3.219 1.019 0.127 2.04 0.34 3.079 0.656 2.049 0.646 3.76 1.602 5.57 2.611 0.883 0.492 1.797 1.002 2.773 1.49 1.567 0.807 3.22 1.43 4.932 1.9C49.186 69.988 47.22 70.295 45.181 70.295zM54.452 68.119c-2.623-0.398-5.12-1.172-7.428-2.357-0.946-0.475-1.84-0.973-2.703-1.453-1.902-1.063-3.699-2.064-5.952-2.775-1.595-0.486-3.144-0.764-4.706-0.852-1.744-2.662-4.748-4.43-8.16-4.43-0.061 0-0.119 0.008-0.18 0.01-0.111-0.313-0.223-0.625-0.319-0.941 0.009 0.002 0.017 0 0.024 0 1.834 0.092 3.856 0.572 5.998 1.08 2.493 0.592 5.141 1.219 7.668 1.219 2.902 0 5.646-0.826 7.815-3.486 4.579-5.461 2.422-11.902-0.184-18.043-1.401-3.215-1.756-5.742-1.12-7.975 3.27 0.004 6.355 0.777 9.119 2.115-0.932 2.123-1.426 4.434-1.426 6.77 0 7.822 5.469 14.615 12.951 16.391C64.539 59.877 60.233 65.273 54.452 68.119zM54.899 37c0-2.004 0.412-3.982 1.189-5.811 1.128 0.686 2.186 1.471 3.162 2.35-0.313 1.367-0.396 2.77-0.227 4.174 0.518 4.266 3.277 7.936 7.154 9.664 0.052 0.604 0.092 1.211 0.092 1.828 0 0.74-0.04 1.473-0.115 2.195C59.644 49.777 54.899 43.838 54.899 37z" fill="#ffffff" data-fill-palette-color="quaternary"></path><path d="M52.218 56.822c0 2.127 1.731 3.859 3.859 3.859 2.129 0 3.859-1.732 3.859-3.859 0-2.129-1.73-3.859-3.859-3.859C53.949 52.963 52.218 54.693 52.218 56.822zM57.937 56.822c0 1.025-0.834 1.859-1.859 1.859s-1.859-0.834-1.859-1.859 0.834-1.859 1.859-1.859S57.937 55.797 57.937 56.822z" fill="#ffffff" data-fill-palette-color="quaternary"></path><circle cx="71.673" cy="26.807" r="1.3" fill="#ffffff" data-fill-palette-color="quaternary"></circle><circle cx="15.747" cy="55.678" r="1.3" fill="#ffffff" data-fill-palette-color="quaternary"></circle><circle cx="70.329" cy="79.91" r="1.3" fill="#ffffff" data-fill-palette-color="quaternary"></circle><circle cx="20.835" cy="18.91" r="1.3" fill="#ffffff" data-fill-palette-color="quaternary"></circle><circle cx="85.021" cy="62.025" r="1.3" fill="#ffffff" data-fill-palette-color="quaternary"></circle><circle cx="30.433" cy="17.01" r="0.56" fill="#ffffff" data-fill-palette-color="quaternary"></circle><circle cx="13.634" cy="45.672" r="0.56" fill="#ffffff" data-fill-palette-color="quaternary"></circle><circle cx="13.076" cy="30.41" r="0.56" fill="#ffffff" data-fill-palette-color="quaternary"></circle><circle cx="47.039" cy="18.91" r="0.56" fill="#ffffff" data-fill-palette-color="quaternary"></circle><circle cx="66.897" cy="14.766" r="0.56" fill="#ffffff" data-fill-palette-color="quaternary"></circle><circle cx="85.02" cy="27.529" r="0.56" fill="#ffffff" data-fill-palette-color="quaternary"></circle><circle cx="71.672" cy="65.525" r="0.56" fill="#ffffff" data-fill-palette-color="quaternary"></circle><circle cx="82.746" cy="75.203" r="0.56" fill="#ffffff" data-fill-palette-color="quaternary"></circle><circle cx="79.018" cy="55.678" r="0.56" fill="#ffffff" data-fill-palette-color="quaternary"></circle><circle cx="52.776" cy="79.125" r="0.56" fill="#ffffff" data-fill-palette-color="quaternary"></circle><circle cx="22.177" cy="85.16" r="0.56" fill="#ffffff" data-fill-palette-color="quaternary"></circle><circle cx="36.589" cy="78.568" r="0.56" fill="#ffffff" data-fill-palette-color="quaternary"></circle><circle cx="12.518" cy="78.01" r="0.56" fill="#ffffff" data-fill-palette-color="quaternary"></circle></svg></g></svg></g></svg></g></svg></g><g></g></svg></g></svg></g></svg></g></svg><rect width="320" height="360" fill="none" stroke="none" visibility="hidden"></rect></g></svg></g></svg>